<svg width="401" height="148" viewBox="0 0 401 148" fill="none" xmlns="http://www.w3.org/2000/svg">
<path d="M165.902 60.4584C165.226 56.7111 162.779 52.1831 155.909 52.1831C147.894 52.1831 144.72 58.897 144.72 66.2355C144.72 73.626 147.894 80.3399 155.909 80.3399C162.832 80.3399 165.486 75.8119 165.902 71.2839H172.096C171.263 79.6633 165.538 85.6486 156.066 85.6486C145.344 85.6486 138.578 77.4774 138.578 66.2355C138.578 55.0456 145.344 46.8744 156.066 46.8744C165.486 46.8744 171.211 52.8597 172.096 60.4584H165.902ZM202.599 60.4584C201.922 56.7111 199.476 52.1831 192.606 52.1831C184.591 52.1831 181.416 58.897 181.416 66.2355C181.416 73.626 184.591 80.3399 192.606 80.3399C199.528 80.3399 202.182 75.8119 202.599 71.2839H208.792C207.959 79.6633 202.234 85.6486 192.762 85.6486C182.041 85.6486 175.275 77.4774 175.275 66.2355C175.275 55.0456 182.041 46.8744 192.762 46.8744C202.182 46.8744 207.907 52.8597 208.792 60.4584H202.599ZM227.481 62.6964C235.444 64.7262 241.481 66.4437 241.481 74.771C241.481 80.7042 237.005 85.6486 227.637 85.6486C218.529 85.6486 211.607 80.9124 211.242 72.481H217.436C217.748 77.2172 220.975 80.3399 227.637 80.3399C233.154 80.3399 235.288 77.8938 235.288 75.0312C235.288 70.6073 232.113 69.7746 224.774 67.953C218.945 66.4957 212.648 64.2577 212.648 57.1795C212.648 50.5697 217.748 46.8744 225.867 46.8744C234.038 46.8744 239.972 51.1422 240.492 58.7929H234.299C233.726 54.4731 231.02 52.1831 225.867 52.1831C221.443 52.1831 218.789 53.8486 218.789 56.607C218.789 60.6666 222.276 61.3952 227.481 62.6964ZM149.768 137.868V105.912H137.85V100.655H167.828V105.912H155.961V137.868H149.768ZM177.349 134.173C181.877 134.173 183.698 131.362 184.167 129.749H189.632C188.278 134.797 184.323 138.649 177.505 138.649C169.23 138.649 164.181 132.924 164.181 124.596C164.181 115.957 169.23 110.544 177.245 110.544C185.832 110.544 190.048 116.529 190.048 126.001H169.646C169.646 130.477 172.508 134.173 177.349 134.173ZM177.245 114.864C172.821 114.864 169.646 117.83 169.646 121.942H184.583C184.583 117.83 181.668 114.864 177.245 114.864ZM212.115 121.005C211.907 118.299 210.189 115.02 205.505 115.02C200.144 115.02 197.854 119.6 197.854 124.596C197.854 129.593 200.092 134.173 205.505 134.173C210.189 134.173 211.907 130.946 212.115 127.979H217.58C217.163 134.121 212.427 138.649 205.505 138.649C197.542 138.649 192.39 132.924 192.39 124.596C192.39 116.269 197.542 110.544 205.453 110.544C212.375 110.544 216.903 114.968 217.58 121.005H212.115ZM235.399 110.544C240.447 110.544 244.35 113.406 244.35 119.496V137.868H238.834V121.057C238.834 117.466 237.324 115.176 233.525 115.176C229.517 115.176 226.655 117.726 226.655 121.682V137.868H221.19V100.655H226.655V114.707H226.759C228.164 112.626 230.923 110.544 235.399 110.544ZM263.66 110.544C268.605 110.544 272.508 113.406 272.508 119.496V137.868H266.991V121.057C266.991 117.466 265.482 115.176 261.735 115.176C257.519 115.176 254.812 117.726 254.812 121.682V137.868H249.348V111.272H254.812V114.707H254.917C256.322 112.626 259.08 110.544 263.66 110.544ZM289.476 138.649C281.149 138.649 276.1 132.872 276.1 124.596C276.1 116.321 281.149 110.544 289.476 110.544C297.803 110.544 302.852 116.321 302.852 124.596C302.852 132.872 297.803 138.649 289.476 138.649ZM289.476 134.173C294.68 134.173 297.387 130.061 297.387 124.596C297.387 119.079 294.68 115.02 289.476 115.02C284.271 115.02 281.565 119.079 281.565 124.596C281.565 130.061 284.271 134.173 289.476 134.173ZM306.733 100.655H312.25V137.868H306.733V100.655ZM329.527 138.649C321.199 138.649 316.151 132.872 316.151 124.596C316.151 116.321 321.199 110.544 329.527 110.544C337.854 110.544 342.903 116.321 342.903 124.596C342.903 132.872 337.854 138.649 329.527 138.649ZM329.527 134.173C334.731 134.173 337.438 130.061 337.438 124.596C337.438 119.079 334.731 115.02 329.527 115.02C324.322 115.02 321.616 119.079 321.616 124.596C321.616 130.061 324.322 134.173 329.527 134.173ZM365.104 111.272H370.569V136.046C370.569 143.697 365.937 147.08 358.39 147.08C350.739 147.08 346.523 143.073 345.951 138.597H351.468C351.988 140.939 353.862 142.708 358.182 142.708C362.762 142.708 365.104 140.626 365.104 135.838V132.611H365C363.595 134.589 361.148 136.567 356.933 136.567C350.271 136.567 345.274 131.935 345.274 123.555C345.274 115.124 350.271 110.544 356.933 110.544C361.148 110.544 363.595 112.522 365 114.395H365.104V111.272ZM357.974 132.091C362.397 132.091 365.052 129.176 365.052 123.555C365.052 117.934 362.397 115.02 357.974 115.02C353.185 115.02 350.739 118.611 350.739 123.555C350.739 128.448 353.185 132.091 357.974 132.091ZM399.225 111.272L388.607 139.533C387.098 143.645 385.381 146.924 380.28 146.924C378.719 146.924 377.418 146.664 376.377 146.403V142.24H376.845C379.135 142.552 380.853 142.396 382.05 140.939C383.039 139.742 383.767 137.66 382.778 135.162L373.15 111.272H379.031L386.474 131.622H386.578L393.396 111.272H399.225Z" fill="white"/>
<path d="M96.4454 27.9249C61.743 0.914219 24.6243 16.8069 11.1339 28.0614V71.8867C10.0604 101.938 41.096 119.29 56.7479 124.209C66.4072 121.883 81.9401 109.973 88.4991 104.308L97.4889 111.998C82.8805 126.457 65.4683 135.91 56.7479 138.966C7.55629 119.111 -1.46218 85.9734 0.177543 71.8867V18.223C44.3606 -14.6907 90.2592 4.37249 106.955 18.0865V42.2352H96.4454V27.9249Z" fill="white"/>
<path d="M82.031 33.9372L73.5343 44.3717C56.7197 32.0291 40.3963 39.8126 33.9865 44.9553V72.0108C35.2386 89.8987 49.4893 98.5076 56.6445 100.222C64 98.1494 68 95.6494 71.1038 93.3648L79.3024 100.52C68.7486 108.748 61.4891 111.886 57.0171 112.929C29.2909 104.164 22.3594 81.9982 22.3594 72.0108V36.235C49.1912 17.4527 72.789 26.4839 82.031 33.9372Z" fill="white"/>
<path d="M100.172 57.8867H76.1416C74.167 57.8882 72.5664 59.4899 72.5664 61.4648C72.5666 63.4396 74.1671 65.0395 76.1416 65.041L76.1426 65.042H93.584C96.9381 64.8184 107 67.0544 107 77.6035C107 85.619 101.633 90.0849 93.584 90.085H63.2324L70.5078 81.1406H93.584C93.7875 81.1117 93.9833 81.0595 94.1719 80.9883C95.6431 80.5444 96.7148 79.1794 96.7148 77.5635C96.7148 75.6494 95.2116 74.0861 93.3213 73.9902L93.1367 73.9863H76.1426C67.8406 73.6309 63.1739 68.3955 63.1738 62.4951C63.1739 52.7612 70.3292 48.9436 76.1426 48.9434H107L100.172 57.8867Z" fill="white"/>
</svg>
